<?xml version="1.0" standalone="no"?>
<!DOCTYPE svg PUBLIC "-//W3C//DTD SVG 20010904//EN"
 "http://www.w3.org/TR/2001/REC-SVG-20010904/DTD/svg10.dtd">
<svg version="1.0" xmlns="http://www.w3.org/2000/svg"
 width="700.000000pt" height="700.000000pt" viewBox="0 0 700.000000 700.000000"
 preserveAspectRatio="xMidYMid meet">
<metadata>
Created by potrace 1.14, written by Peter Selinger 2001-2017
</metadata>
<g transform="translate(0.000000,700.000000) scale(0.100000,-0.100000)"
fill="#000000" stroke="none">
<path d="M3642 5996 c-117 -68 -218 -128 -225 -134 -7 -5 -33 -21 -59 -35 -63
-35 -453 -264 -498 -292 -19 -12 -165 -99 -325 -192 -159 -94 -306 -180 -325
-192 -19 -11 -48 -28 -63 -36 -15 -9 -315 -185 -665 -392 -350 -207 -648 -382
-662 -390 -14 -7 -203 -118 -420 -247 l-395 -233 0 -517 0 -517 51 -28 c27
-16 69 -40 92 -55 23 -14 44 -26 47 -26 3 0 49 -25 103 -56 53 -31 117 -68
141 -82 25 -13 124 -70 220 -125 97 -55 196 -111 221 -125 25 -14 153 -87 285
-162 328 -187 336 -191 373 -211 18 -9 38 -22 45 -27 7 -5 37 -23 67 -39 30
-17 79 -44 108 -62 29 -17 55 -31 58 -31 2 0 21 -10 42 -23 20 -13 62 -37 92
-54 30 -17 84 -47 120 -68 36 -21 85 -49 110 -63 25 -14 92 -52 150 -85 58
-33 125 -71 150 -85 25 -14 59 -34 75 -44 17 -10 37 -21 45 -25 8 -4 87 -48
175 -99 88 -50 181 -103 207 -117 26 -14 126 -71 223 -127 96 -55 186 -105
199 -111 22 -10 62 16 467 307 244 174 458 327 474 338 49 34 239 170 250 179
10 8 383 275 419 299 10 7 33 24 52 38 18 14 57 42 86 62 29 21 188 134 353
252 165 119 309 221 319 228 10 7 40 29 67 48 26 19 56 41 66 48 60 42 226
162 250 180 15 11 47 34 69 49 23 15 195 138 383 272 l341 244 0 65 0 64 -28
-19 c-16 -10 -86 -58 -155 -108 -178 -126 -607 -432 -636 -453 -13 -9 -155
-110 -315 -224 -160 -114 -300 -214 -311 -222 -11 -8 -222 -159 -470 -335
-247 -176 -458 -326 -467 -333 -9 -7 -166 -119 -348 -248 -182 -129 -446 -318
-587 -418 -223 -160 -259 -182 -277 -173 -33 16 -132 72 -236 133 -97 57 -489
282 -525 302 -30 17 -378 216 -395 227 -17 10 -368 211 -440 251 -75 42 -310
177 -395 227 -44 26 -87 50 -95 54 -8 4 -31 17 -50 28 -35 21 -412 238 -480
276 -120 68 -427 245 -440 253 -8 6 -26 16 -40 23 -14 7 -57 31 -96 54 l-71
42 0 436 c0 239 1 435 3 435 2 0 34 -16 71 -36 150 -80 213 -114 328 -176 66
-36 161 -87 210 -113 50 -27 142 -76 205 -110 63 -34 156 -84 205 -110 50 -26
113 -60 140 -75 28 -15 84 -46 125 -68 41 -22 134 -71 205 -110 72 -38 164
-87 205 -109 132 -71 213 -115 280 -151 35 -19 101 -54 145 -77 44 -24 189
-102 323 -174 133 -72 244 -131 246 -131 1 0 49 -26 107 -58 57 -32 124 -68
149 -81 25 -12 63 -32 85 -45 22 -12 87 -47 145 -78 l105 -56 135 97 c74 54
371 265 660 471 625 445 620 441 712 508 40 29 82 59 93 66 153 109 1003 714
1193 850 185 132 247 176 302 214 30 21 127 90 215 153 88 64 184 132 214 152
l53 37 -1565 780 c-861 429 -1569 780 -1574 780 -4 0 -104 -56 -221 -124z"/>
</g>
</svg>
