<?xml version="1.0" standalone="no"?>
<!DOCTYPE svg PUBLIC "-//W3C//DTD SVG 20010904//EN"
 "http://www.w3.org/TR/2001/REC-SVG-20010904/DTD/svg10.dtd">
<svg version="1.0" xmlns="http://www.w3.org/2000/svg"
 width="700.000000pt" height="700.000000pt" viewBox="0 0 700.000000 700.000000"
 preserveAspectRatio="xMidYMid meet">
<metadata>
Created by potrace 1.11, written by Peter Selinger 2001-2013
</metadata>
<g transform="translate(0.000000,700.000000) scale(0.100000,-0.100000)"
fill="#000000" stroke="none">
<path d="M3800 6091 c-25 -16 -112 -68 -195 -116 -82 -49 -258 -152 -390 -230
-132 -79 -266 -158 -298 -176 -69 -40 -41 -24 -437 -257 -173 -102 -486 -286
-695 -410 -209 -124 -396 -234 -415 -244 -19 -11 -123 -72 -230 -136 -198
-118 -219 -130 -287 -169 -21 -11 -218 -127 -437 -257 -219 -130 -403 -236
-408 -236 -4 0 -7 -231 -6 -521 l3 -520 50 -28 c28 -16 115 -66 195 -111 80
-45 165 -94 189 -108 25 -13 124 -70 220 -125 97 -55 196 -111 221 -125 25
-14 153 -87 285 -162 132 -75 260 -148 285 -162 25 -14 85 -48 134 -77 49 -28
90 -51 91 -51 2 0 33 -18 69 -40 36 -22 68 -40 71 -40 3 0 22 -10 43 -23 20
-13 62 -37 92 -54 30 -17 84 -47 120 -68 36 -21 85 -49 110 -63 25 -14 92 -52
150 -85 58 -33 125 -71 150 -85 25 -14 137 -78 250 -142 113 -64 225 -128 250
-142 25 -14 126 -71 225 -128 98 -56 189 -107 201 -112 19 -9 33 -3 96 43 40
29 327 235 638 457 311 222 572 409 580 415 18 14 494 355 527 377 12 8 160
114 328 235 169 121 389 279 489 350 101 72 352 251 559 400 l377 270 0 62 c0
35 -4 63 -8 63 -5 0 -17 -8 -28 -18 -11 -10 -33 -27 -49 -38 -24 -15 -312
-220 -425 -301 -23 -17 -235 -168 -1115 -795 -192 -137 -390 -278 -440 -314
-49 -35 -132 -94 -184 -130 -52 -37 -99 -70 -105 -75 -6 -5 -222 -160 -481
-343 -258 -184 -526 -374 -595 -424 -69 -49 -130 -92 -137 -96 -7 -4 -171 85
-390 210 -208 119 -387 222 -398 228 -15 9 -305 175 -403 231 -9 6 -60 34
-112 64 -108 62 -102 58 -315 181 -88 50 -178 102 -200 114 -22 13 -114 66
-205 118 -91 53 -183 106 -204 117 -21 12 -116 67 -211 121 -95 54 -187 107
-206 118 -19 11 -61 35 -94 54 -33 20 -80 47 -105 60 -25 14 -100 57 -167 97
-68 39 -124 71 -127 71 -2 0 -37 20 -78 45 l-75 45 0 435 c0 239 1 435 3 435
2 0 34 -16 71 -36 148 -79 213 -114 333 -179 69 -37 157 -84 195 -105 39 -21
164 -88 280 -150 116 -62 242 -129 280 -150 187 -101 547 -294 692 -371 43
-23 101 -54 128 -69 28 -15 91 -49 140 -75 50 -26 121 -65 158 -86 38 -22 70
-39 72 -39 2 0 79 -40 170 -90 91 -49 168 -90 170 -90 2 0 30 -15 62 -34 32
-18 102 -56 156 -85 53 -28 130 -68 170 -90 39 -22 101 -55 136 -74 l65 -35
50 37 c53 39 259 186 332 237 23 16 92 65 154 109 62 44 132 94 155 110 71 50
1051 750 1185 846 122 87 168 119 240 170 19 13 136 96 259 184 123 88 240
172 260 186 20 14 232 165 471 335 239 171 444 315 454 321 17 10 9 16 -65 53
-46 24 -376 189 -733 367 -1599 799 -2314 1153 -2327 1152 -8 0 -34 -13 -59
-28z"/>
</g>
</svg>
